<?xml version="1.0" encoding="UTF-8"?>
<svg width="32px" height="32px" viewBox="0 0 32 32" version="1.1" xmlns="http://www.w3.org/2000/svg" xmlns:xlink="http://www.w3.org/1999/xlink">
    <!-- Generator: Sketch 41 (35326) - http://www.bohemiancoding.com/sketch -->
    <title>小图标/关于 copy</title>
    <desc>Created with Sketch.</desc>
    <defs></defs>
    <g id="Page-1" stroke="none" stroke-width="1" fill="none" fill-rule="evenodd">
        <g id="小图标/关于" fill="#8B49F6">
            <g id="Detail-Disclosure">
                <path d="M16.4848485,32 C24.836556,32 32,24.836556 32,16.4848485 C32,7.163444 24.836556,0 16.4848485,0 C7.163444,0 0,7.163444 0,16.4848485 C0,24.836556 7.163444,32 16.4848485,32 Z M16,30 C23.7319865,30 30,23.7319865 30,16 C30,8.2680135 23.7319865,2 16,2 C8.2680135,2 2,8.2680135 2,16 C2,23.7319865 8.2680135,30 16,30 Z M13,12 L13,13 L15,13 L15,24 L13,24 L13,25 L20,25 L20,24 L18,24 L18,12 L13,12 Z M16,10 C17.1045695,10 18,9.1045695 18,8 C18,6.8954305 17.1045695,6 16,6 C14.8954305,6 14,6.8954305 14,8 C14,9.1045695 14.8954305,10 16,10 Z"></path>
            </g>
        </g>
    </g>
</svg>